<svg width="500" height="497" viewBox="0 0 500 497" fill="none" xmlns="http://www.w3.org/2000/svg">
<path d="M49.3371 92.3487C38.804 84.5489 28.5085 76.9373 18.2039 69.338C16.8184 68.3162 15.6094 67.1743 15.0737 65.4769C10.1687 49.9348 5.25912 34.394 0.377687 18.8445C0.142379 18.0949 -0.422862 17.284 0.551856 16.1571C6.45346 19.5586 11.6659 24.0345 17.0878 28.1761C57.6757 59.1791 98.2212 90.2375 138.759 121.306C144.677 125.842 150.426 130.601 156.364 135.11C159.878 137.78 161.929 141.29 163.516 145.302C179.082 184.653 194.619 224.016 210.36 263.298C217.942 282.22 225.254 301.267 234.174 319.626C236.087 323.563 238.622 326.958 243.567 329.77C242.252 322.913 238.338 317.952 238.028 312.186C239.019 311.412 239.684 311.726 240.26 312.095C251.364 319.202 264.061 320.115 276.638 321.34C294.924 323.12 312.731 326.57 329.449 334.653C335.232 337.449 339.418 341.417 341.6 347.401C342.566 350.051 344.092 351.982 346.598 353.339C355.967 358.416 360.24 377.67 349.499 384.833C348.403 384.85 348.16 383.879 347.895 383.171C344.549 374.219 337.453 371.274 328.627 370.95C308.629 370.215 290.876 375.98 277.15 390.771C258.037 411.366 234.323 424.345 208.49 433.934C201.682 436.461 199.023 441.129 197.459 447.882C203.94 446.486 209.072 442.576 214.937 440.76C216.022 442.176 214.991 443.055 214.487 443.968C205.982 459.367 196.897 474.422 187.684 489.405C186.261 491.72 184.628 492.568 181.922 492.67C174.907 492.933 167.907 493.592 160.9 494.087C158.548 494.253 156.192 494.419 153.593 493.823C154.511 489.197 157.25 485.73 158.488 481.482C155.771 484.918 153.025 488.332 150.347 491.798C149.099 493.413 147.746 494.744 145.556 494.861C136.432 495.347 127.309 495.856 118.184 496.319C117.685 496.345 117.17 496.036 116.12 495.719C121.613 485.658 129.674 477.736 134.812 467.717C131.074 471.233 127.336 474.749 123.6 478.267C118.682 482.898 113.734 487.499 108.869 492.185C107.429 493.572 106.184 494.433 104.113 493.253C96.3058 488.803 88.4324 484.469 79.5474 479.514C90.7567 470.353 101.488 461.583 112.22 452.813C111.987 452.471 111.755 452.129 111.522 451.786C105.476 455.199 99.4184 458.594 93.3855 462.031C87.2734 465.513 81.1905 469.046 75.0826 472.536C73.7719 473.285 72.4817 474.417 70.8509 473.175C63.5894 467.644 56.4283 462.003 50.4448 455.167C51.2488 452.861 53.1286 452.298 54.6716 451.496C72.6447 442.152 90.452 432.457 108.714 423.712C122.18 417.265 133.871 408.34 145.938 399.864C150.658 396.55 155.455 393.346 160.189 390.052C161.523 389.125 163.19 388.502 164.064 385.759C150.846 390.246 138.231 394.528 124.724 399.113C124.724 391.241 124.637 384.157 124.777 377.077C124.819 374.942 127.062 374.772 128.542 374.237C137.665 370.94 146.834 367.773 155.973 364.524C157.244 364.072 158.761 363.98 159.571 362.554C158.917 360.123 156.892 360.88 155.399 360.87C144.42 360.796 133.439 360.724 122.462 360.88C119.246 360.926 117.899 359.83 116.887 356.704C103.898 316.602 90.7201 276.56 77.6494 236.484C77.0613 234.681 75.9694 232.894 76.6017 230.366C89.9767 228.772 103.466 227.4 117.835 227.501C115.34 224.79 112.667 223.623 110.277 222.155C94.2123 212.284 78.0936 202.502 61.9893 192.696C60.5399 191.814 59.2417 190.934 58.6107 189.142C54.6884 178.007 50.6573 166.909 46.6857 155.791C46.6137 155.589 46.8309 155.284 47.1043 154.431C68.0096 163.974 88.8476 173.487 109.686 183C109.841 182.722 109.996 182.443 110.152 182.164C101.016 175.935 91.8922 169.69 82.7436 163.48C69.473 154.473 56.2057 145.461 42.8847 136.529C40.5537 134.966 39.1487 133.038 38.153 130.379C34.0104 119.316 29.5811 108.36 25.3334 97.3356C24.7084 95.7136 23.6348 94.0734 24.5604 91.3755C59.7793 111.86 94.7334 132.19 129.687 152.521C129.862 152.295 130.037 152.069 130.212 151.843C103.332 132.076 76.4518 112.308 49.3371 92.3487ZM152.362 314.865C153.351 315.865 154.357 316.848 155.326 317.867C157.414 320.065 158.995 319.312 159.431 316.741C160.338 311.396 162.178 306.067 161.365 300.602C160.353 293.807 159.207 286.981 157.396 280.366C154.462 269.651 154.141 258.175 147.827 248.389C146.051 245.637 146.685 240.631 141.858 241.063C137.048 241.494 136.866 246.055 136.829 249.594C136.684 263.21 136.739 276.832 137.031 290.444C137.118 294.467 137.647 298.761 140.861 301.777C144.985 305.644 148.32 310.16 152.362 314.865ZM309.81 343.039C309.818 346.682 311.898 349.291 314.899 350.527C317.955 351.785 321.116 350.847 323.834 348.296C320.326 343.468 315.258 343.203 309.81 343.039Z" fill="url(#paint0_linear_37_37)"/>
<path d="M452.844 181.576C450.476 188.182 445.992 191.826 439.929 194.798C421.614 203.774 403.83 213.784 386.664 224.841C384.676 226.122 382.794 227.567 380.997 229.232C400.111 223.059 418.558 214.9 438.75 210.448C438.024 214.271 436.138 216.768 434.668 219.39C430.473 226.876 426.956 234.988 421.513 241.458C415.989 248.026 406.79 249.83 399.297 253.894C376.543 266.239 353.53 278.128 333.554 294.932C325.993 301.292 318.914 308.121 312.618 315.72C311.014 317.656 309.352 318.184 307.11 317.625C305.884 317.319 304.658 317.006 303.452 316.631C290.659 312.648 287.593 304.637 294.369 293.101C313.55 260.453 335.134 229.338 355.414 197.392C362.349 186.468 369.743 175.822 376.317 164.689C380.998 156.761 387.569 151.129 394.988 146.176C428.684 123.681 462.192 100.899 496.526 79.3735C497.458 78.7895 498.314 77.9642 499.553 78.0242C500.52 79.1669 499.682 80.155 499.244 81.1306C492.504 96.1402 485.715 111.128 479.017 126.157C477.771 128.951 475.971 130.995 473.424 132.756C450.742 148.435 428.146 164.237 405.53 180.01C404.633 180.636 403.789 181.338 403.061 182.226C424.115 172.058 444.832 161.249 466.378 152.22C466.708 152.497 467.038 152.775 467.368 153.052C462.569 162.465 457.771 171.878 452.844 181.576Z" fill="url(#paint1_linear_37_37)"/>
<path d="M200.987 141.746C201.083 167.28 201.526 192.385 202.939 217.601C200.548 217.296 200.526 215.613 200.055 214.422C190.543 190.387 180.718 166.465 171.82 142.203C169.285 135.291 165.413 130.649 159.761 126.412C142.888 113.763 126.374 100.634 109.588 87.8672C106.44 85.4728 105.347 82.8484 105.373 78.9634C105.539 53.9264 105.478 28.8879 105.505 3.84987C105.507 2.62568 105.178 1.31925 106.32 0C108.714 0.722719 110.436 2.60689 112.312 4.12651C140.613 27.0519 168.859 50.0463 197.172 72.9569C199.441 74.793 200.427 76.7422 200.438 79.7279C200.515 100.26 200.78 120.792 200.987 141.746Z" fill="url(#paint2_linear_37_37)"/>
<path d="M271.005 312.653C261.375 311.135 252.006 310.242 243.341 306.121C239.764 304.419 239.882 302.844 242.288 300.207C282.376 256.271 321.963 211.862 364.914 170.636C365.394 170.175 365.986 169.83 366.519 169.435C367.81 170.633 366.765 171.36 366.295 172.073C340.768 210.804 315.291 249.568 289.622 288.205C285.113 294.993 283.786 302.028 285.43 309.829C285.574 310.511 285.626 311.22 285.641 311.919C285.653 312.466 285.543 313.016 285.448 313.941C280.659 314.196 276.049 312.996 271.005 312.653Z" fill="url(#paint3_linear_37_37)"/>
<defs>
<linearGradient id="paint0_linear_37_37" x1="177.912" y1="16.1571" x2="177.912" y2="496.321" gradientUnits="userSpaceOnUse">
<stop offset="0.0288462" stop-color="#012505"/>
<stop offset="0.5625" stop-color="#176549"/>
<stop offset="1" stop-color="white"/>
</linearGradient>
<linearGradient id="paint1_linear_37_37" x1="395.433" y1="78.0211" x2="395.433" y2="317.835" gradientUnits="userSpaceOnUse">
<stop offset="0.0288462" stop-color="#012505"/>
<stop offset="0.5625" stop-color="#176549"/>
<stop offset="1" stop-color="white"/>
</linearGradient>
<linearGradient id="paint2_linear_37_37" x1="154.155" y1="0" x2="154.155" y2="217.601" gradientUnits="userSpaceOnUse">
<stop offset="0.0288462" stop-color="#012505"/>
<stop offset="0.5625" stop-color="#176549"/>
<stop offset="1" stop-color="white"/>
</linearGradient>
<linearGradient id="paint3_linear_37_37" x1="303.849" y1="169.435" x2="303.849" y2="313.976" gradientUnits="userSpaceOnUse">
<stop offset="0.0288462" stop-color="#012505"/>
<stop offset="0.5625" stop-color="#176549"/>
<stop offset="1" stop-color="white"/>
</linearGradient>
</defs>
</svg>
